<svg width="48" height="56" viewBox="0 0 48 56" fill="none" xmlns="http://www.w3.org/2000/svg">
<path d="M8.40304 15C10.403 13.5 19.403 11.5 20.403 11.5C21.403 11.5 23.403 12 23.903 13.5C24.403 15 21.903 26.5 21.903 26.5C21.903 26.5 31.903 28.5 33.403 29.5C34.903 30.5 40.4031 43 42.403 43C43.3081 43 44.2131 42.7952 44.9328 42.571C45.7941 42.3027 46.7786 42.5633 47.279 43.3139C47.8759 44.2092 47.553 45.425 46.5906 45.9062L41.2313 48.5859C40.7639 48.8195 40.1968 48.6568 39.9258 48.21C38.251 45.4482 32.6738 36.3472 31.403 35.5C29.903 34.5 15.903 32.5 15.903 32.5C15.903 32.5 12.903 32 12.903 28.5C12.903 25 15.403 18 14.903 17.5C14.403 17 12.5027 17.596 11.403 18C10.4866 18.3366 9.40301 19.5 9.40301 19.5L2.95038 27.2432C2.36858 27.9413 1.33514 28.0457 0.625483 27.478C-0.0619606 26.928 -0.204585 25.9407 0.306633 25.224C2.26452 22.479 6.84705 16.167 8.40304 15Z" fill="#008835"/>
<path d="M29.403 5.5C29.403 8.53757 26.9406 11 23.903 11C20.8655 11 18.403 8.53757 18.403 5.5C18.403 2.46243 20.8655 0 23.903 0C26.9406 0 29.403 2.46243 29.403 5.5Z" fill="#008835"/>
<path d="M11.6295 23.4077C10.2503 24.0069 8.94872 24.7898 7.76218 25.7421C5.00379 27.956 3.00462 30.9751 2.04316 34.3789C1.0817 37.7826 1.20584 41.4015 2.39829 44.7314C3.59073 48.0613 5.7921 50.9363 8.69571 52.956C11.5993 54.9756 15.0606 56.0393 18.5973 55.9989C22.134 55.9585 25.5701 54.816 28.4268 52.7305C31.2834 50.645 33.4185 47.7204 34.5346 44.3641C34.5616 44.2827 34.5881 44.2011 34.6139 44.1193L30.6427 37.3483C30.8932 39.2046 30.7193 41.1029 30.1227 42.8971C29.3119 45.3354 27.7607 47.4602 25.6853 48.9753C23.6099 50.4904 21.1136 51.3205 18.5442 51.3499C15.9747 51.3792 13.4601 50.6064 11.3506 49.1391C9.24109 47.6718 7.64178 45.5831 6.77546 43.1639C5.90914 40.7447 5.81895 38.1156 6.51746 35.6427C7.21408 33.1766 8.66053 30.9883 10.6561 29.3811L11.6295 23.4077Z" fill="#008835"/>
<path d="M34.653 34.0062C34.7124 34.1996 34.7683 34.3938 34.8207 34.5886L34.5056 34.0515L34.653 34.0062Z" fill="#008835"/>
</svg>
