<svg width="512" height="512" viewBox="0 0 512 512" fill="none" xmlns="http://www.w3.org/2000/svg">
<path d="M492 256C494.122 256 496.157 255.157 497.657 253.657C499.157 252.157 500 250.122 500 248V200C500 198.421 499.533 196.877 498.658 195.563C497.782 194.249 496.537 193.224 495.08 192.616L303.08 112.616C301.108 111.8 298.892 111.8 296.92 112.616L104.92 192.616C103.463 193.224 102.218 194.249 101.342 195.563C100.467 196.877 99.9999 198.421 100 200V248C100 250.122 100.843 252.157 102.343 253.657C103.843 255.157 105.878 256 108 256H132V432H124C117.635 432 111.53 434.529 107.029 439.029C102.529 443.53 100 449.635 100 456V496C100 498.122 100.843 500.157 102.343 501.657C103.843 503.157 105.878 504 108 504H492C494.122 504 496.157 503.157 497.657 501.657C499.157 500.157 500 498.122 500 496V456C500 449.635 497.471 443.53 492.971 439.029C488.47 434.529 482.365 432 476 432H468V256H492ZM300 168C304.747 168 309.387 169.408 313.334 172.045C317.28 174.682 320.357 178.43 322.173 182.816C323.99 187.201 324.465 192.027 323.539 196.682C322.613 201.338 320.327 205.614 316.971 208.971C313.614 212.327 309.338 214.613 304.682 215.539C300.027 216.465 295.201 215.99 290.816 214.173C286.43 212.357 282.682 209.28 280.045 205.334C277.408 201.387 276 196.747 276 192C276 185.635 278.529 179.53 283.029 175.029C287.53 170.529 293.635 168 300 168ZM212 256H260V432H212V256ZM388 432H340V256H388V432Z" fill="#008835" fill-opacity="0.75"/>
<path d="M388 160C394.365 160 400.47 157.471 404.971 152.971C409.471 148.47 412 142.365 412 136V120C411.913 118.578 411.487 117.198 410.758 115.975C410.028 114.752 409.017 113.721 407.808 112.968L215.808 8.96799C214.639 8.33503 213.33 8.00356 212 8.00356C210.67 8.00356 209.361 8.33503 208.192 8.96799L16.192 112.968C14.9711 113.707 13.9504 114.735 13.2195 115.961C12.4886 117.188 12.0698 118.574 12 120V136C12 142.365 14.5286 148.47 19.0294 152.971C23.5303 157.471 29.6348 160 36 160C36.0205 164.946 37.5687 169.765 40.4327 173.798C43.2967 177.83 47.3367 180.879 52 182.528V305.472C47.3367 307.121 43.2967 310.17 40.4327 314.202C37.5687 318.235 36.0205 323.054 36 328C29.6348 328 23.5303 330.529 19.0294 335.029C14.5286 339.53 12 345.635 12 352V400C12 402.122 12.8429 404.157 14.3431 405.657C15.8434 407.157 17.8783 408 20 408H404C406.122 408 408.157 407.157 409.657 405.657C411.157 404.157 412 402.122 412 400V352C412 345.635 409.471 339.53 404.971 335.029C400.47 330.529 394.365 328 388 328C387.979 323.054 386.431 318.235 383.567 314.202C380.703 310.17 376.663 307.121 372 305.472V182.528C376.663 180.879 380.703 177.83 383.567 173.798C386.431 169.765 387.979 164.946 388 160V160ZM364 168H332C329.878 168 327.843 167.157 326.343 165.657C324.843 164.157 324 162.122 324 160H372C372 162.122 371.157 164.157 369.657 165.657C368.157 167.157 366.122 168 364 168ZM308 328H284V224C284 217.635 281.471 211.53 276.971 207.029C272.47 202.529 266.365 200 260 200H164C157.635 200 151.53 202.529 147.029 207.029C142.529 211.53 140 217.635 140 224V328H116C115.979 323.054 114.431 318.235 111.567 314.202C108.703 310.17 104.663 307.121 100 305.472V182.528C104.663 180.879 108.703 177.83 111.567 173.798C114.431 169.765 115.979 164.946 116 160H308C308.021 164.946 309.569 169.765 312.433 173.798C315.297 177.83 319.337 180.879 324 182.528V305.472C319.337 307.121 315.297 310.17 312.433 314.202C309.569 318.235 308.021 323.054 308 328ZM289.336 360H134.664V344H289.336V360ZM260 216C262.122 216 264.157 216.843 265.657 218.343C267.157 219.843 268 221.878 268 224V328H220V216H260ZM204 328H156V224C156 221.878 156.843 219.843 158.343 218.343C159.843 216.843 161.878 216 164 216H204V328ZM68 184H84V304H68V184ZM340 184H356V304H340V184ZM212 25.096L372.432 112H51.568L212 25.096ZM28 136V128H396V136C396 138.122 395.157 140.157 393.657 141.657C392.157 143.157 390.122 144 388 144H36C33.8783 144 31.8434 143.157 30.3431 141.657C28.8429 140.157 28 138.122 28 136ZM60 160H100C100 162.122 99.1571 164.157 97.6569 165.657C96.1566 167.157 94.1217 168 92 168H60C57.8783 168 55.8434 167.157 54.3431 165.657C52.8429 164.157 52 162.122 52 160H60ZM60 320H92C94.1217 320 96.1566 320.843 97.6569 322.343C99.1571 323.843 100 325.878 100 328H52C52 325.878 52.8429 323.843 54.3431 322.343C55.8434 320.843 57.8783 320 60 320ZM28 352C28 349.878 28.8429 347.843 30.3431 346.343C31.8434 344.843 33.8783 344 36 344H118.664V360H100C93.6348 360 87.5303 362.529 83.0294 367.029C78.5286 371.53 76 377.635 76 384V392H28V352ZM92 392V384C92 381.878 92.8429 379.843 94.3431 378.343C95.8434 376.843 97.8783 376 100 376H324C326.122 376 328.157 376.843 329.657 378.343C331.157 379.843 332 381.878 332 384V392H92ZM396 352V392H348V384C348 377.635 345.471 371.53 340.971 367.029C336.47 362.529 330.365 360 324 360H305.336V344H388C390.122 344 392.157 344.843 393.657 346.343C395.157 347.843 396 349.878 396 352ZM324 328C324 325.878 324.843 323.843 326.343 322.343C327.843 320.843 329.878 320 332 320H364C366.122 320 368.157 320.843 369.657 322.343C371.157 323.843 372 325.878 372 328H324Z" fill="#212121"/>
<path d="M212 96C216.747 96 221.387 94.5924 225.334 91.9553C229.28 89.3181 232.357 85.5698 234.173 81.1844C235.99 76.799 236.465 71.9734 235.539 67.3178C234.613 62.6623 232.327 58.3859 228.971 55.0294C225.614 51.673 221.338 49.3872 216.682 48.4611C212.027 47.5351 207.201 48.0104 202.816 49.8269C198.43 51.6434 194.682 54.7195 192.045 58.6663C189.408 62.6131 188 67.2532 188 72C188 78.3652 190.529 84.4697 195.029 88.9706C199.53 93.4714 205.635 96 212 96V96ZM212 64C213.582 64 215.129 64.4692 216.445 65.3482C217.76 66.2273 218.786 67.4767 219.391 68.9385C219.997 70.4003 220.155 72.0089 219.846 73.5607C219.538 75.1126 218.776 76.538 217.657 77.6568C216.538 78.7757 215.113 79.5376 213.561 79.8463C212.009 80.155 210.4 79.9965 208.939 79.391C207.477 78.7855 206.227 77.7602 205.348 76.4446C204.469 75.129 204 73.5822 204 72C204 69.8783 204.843 67.8434 206.343 66.3431C207.843 64.8429 209.878 64 212 64Z" fill="#212121"/>
</svg>
