<svg width="512" height="512" viewBox="0 0 512 512" fill="none" xmlns="http://www.w3.org/2000/svg">
<path d="M292 384V320C292.013 309.395 296.231 299.228 303.73 291.73C311.228 284.231 321.395 280.013 332 280H444V224C443.979 217.641 441.444 211.549 436.947 207.053C432.451 202.556 426.359 200.021 420 200H100C93.6348 200 87.5303 202.529 83.0294 207.029C78.5286 211.53 76 217.635 76 224V480C76 486.365 78.5286 492.47 83.0294 496.971C87.5303 501.471 93.6348 504 100 504H420C426.365 504 432.47 501.471 436.971 496.971C441.471 492.47 444 486.365 444 480V424H332C321.395 423.987 311.228 419.769 303.73 412.27C296.231 404.772 292.013 394.605 292 384V384Z" fill="#008835" fill-opacity="0.75"/>
<path d="M364 360C368.418 360 372 356.418 372 352C372 347.582 368.418 344 364 344C359.582 344 356 347.582 356 352C356 356.418 359.582 360 364 360Z" fill="#008835" fill-opacity="0.75"/>
<path d="M452 296H332C325.635 296 319.53 298.529 315.029 303.029C310.529 307.53 308 313.635 308 320V384C308 390.365 310.529 396.47 315.029 400.971C319.53 405.471 325.635 408 332 408H452C458.365 408 464.47 405.471 468.971 400.971C473.471 396.47 476 390.365 476 384V320C476 313.635 473.471 307.53 468.971 303.029C464.47 298.529 458.365 296 452 296ZM364 376C359.253 376 354.613 374.592 350.666 371.955C346.72 369.318 343.643 365.57 341.827 361.184C340.01 356.799 339.535 351.973 340.461 347.318C341.387 342.662 343.673 338.386 347.029 335.029C350.386 331.673 354.662 329.387 359.318 328.461C363.973 327.535 368.799 328.01 373.184 329.827C377.57 331.643 381.318 334.72 383.955 338.666C386.592 342.613 388 347.253 388 352C388 358.365 385.471 364.47 380.971 368.971C376.47 373.471 370.365 376 364 376V376Z" fill="#008835" fill-opacity="0.75"/>
<path d="M304.8 169.536L244 108.688V32C244 25.6348 241.471 19.5303 236.971 15.0294C232.47 10.5286 226.365 8 220 8H60C53.6348 8 47.5303 10.5286 43.0294 15.0294C38.5286 19.5303 36 25.6348 36 32V264C36 270.365 38.5286 276.47 43.0294 280.971C47.5303 285.471 53.6348 288 60 288H100V352C100.017 366.847 105.922 381.081 116.421 391.579C126.919 402.078 141.153 407.983 156 408H316C322.365 408 328.47 405.471 332.971 400.971C337.471 396.47 340 390.365 340 384V254.4C340.038 238.629 336.947 223.008 330.905 208.44C324.862 193.873 315.989 180.65 304.8 169.536V169.536ZM228 32V183.592L204 159.656V24H220C222.122 24 224.157 24.8429 225.657 26.3431C227.157 27.8434 228 29.8783 228 32ZM163.68 144.912V24H188V147.552C180.401 144.032 171.857 143.105 163.68 144.912V144.912ZM163.68 272V231.52L188 255.808V272H163.68ZM52 264V32C52 29.8783 52.8429 27.8434 54.3431 26.3431C55.8434 24.8429 57.8783 24 60 24H147.68V152.256L147.6 152.32C145.851 153.543 144.272 154.993 142.904 156.632C139.068 160.685 136.129 165.501 134.277 170.765C132.425 176.029 131.701 181.624 132.154 187.186C132.607 192.749 134.226 198.153 136.905 203.048C139.584 207.944 143.263 212.22 147.704 215.6V272H60C57.8783 272 55.8434 271.157 54.3431 269.657C52.8429 268.157 52 266.122 52 264V264ZM324 384C324 386.122 323.157 388.157 321.657 389.657C320.157 391.157 318.122 392 316 392H156C145.395 391.987 135.228 387.769 127.73 380.27C120.231 372.772 116.013 362.605 116 352V288H220.208L233.488 301.28C232.784 313.808 233.408 351.68 264.424 367.16C266.323 368.108 268.521 368.264 270.534 367.591C271.531 367.259 272.453 366.733 273.246 366.044C274.04 365.355 274.69 364.516 275.16 363.576C275.63 362.636 275.909 361.612 275.983 360.564C276.057 359.515 275.924 358.463 275.591 357.466C275.259 356.469 274.733 355.547 274.044 354.754C273.355 353.96 272.516 353.31 271.576 352.84C245.104 339.608 249.648 299.624 249.696 299.24C249.848 298.03 249.722 296.801 249.327 295.648C248.932 294.494 248.278 293.446 247.416 292.584C131.528 176.688 168.648 213.816 159.256 204.424C149.888 194.488 139.656 182.528 154.92 167.168C159.149 162.933 164.802 160.424 170.779 160.128C176.756 159.832 182.63 161.772 187.256 165.568L268.936 247.168C270.445 248.625 272.466 249.432 274.563 249.413C276.661 249.395 278.667 248.554 280.151 247.071C281.634 245.587 282.475 243.581 282.493 241.483C282.512 239.386 281.705 237.365 280.248 235.856L244 199.568V131.32L293.528 180.848C303.218 190.484 310.901 201.946 316.132 214.572C321.362 227.197 324.037 240.734 324 254.4V384Z" fill="#212121"/>
<path d="M116 96V48C116 45.8783 115.157 43.8434 113.657 42.3431C112.157 40.8429 110.122 40 108 40C105.878 40 103.843 40.8429 102.343 42.3431C100.843 43.8434 100 45.8783 100 48V96C100 98.1217 100.843 100.157 102.343 101.657C103.843 103.157 105.878 104 108 104C110.122 104 112.157 103.157 113.657 101.657C115.157 100.157 116 98.1217 116 96Z" fill="#212121"/>
<path d="M76 40C73.8783 40 71.8434 40.8429 70.3431 42.3431C68.8429 43.8434 68 45.8783 68 48V144C68 146.122 68.8429 148.157 70.3431 149.657C71.8434 151.157 73.8783 152 76 152C78.1217 152 80.1566 151.157 81.6569 149.657C83.1571 148.157 84 146.122 84 144V48C84 45.8783 83.1571 43.8434 81.6569 42.3431C80.1566 40.8429 78.1217 40 76 40Z" fill="#212121"/>
</svg>
