<svg width="1440" height="556" viewBox="0 0 1440 556" fill="none" xmlns="http://www.w3.org/2000/svg">
<rect y="-410" width="1440" height="1436" fill="#F2F5F7"/>
<path opacity="0.5" fill-rule="evenodd" clip-rule="evenodd" d="M1144.85 987.031L1241.23 1005.89L1237.51 1027.88H1254.96L1297 788.19L1306.72 1027.88H1323.88L1320.74 947.034L1364.78 945.891L1369.36 1027.88H1377.94L1373.36 945.606L1439.43 943.892V926.75L1385.09 928.179L1381.08 899.324L1439.71 901.038V892.467L1379.94 890.753L1371.93 834.472L1407.4 795.618L1440 816.188V805.903L1413.4 789.047L1440 759.621V746.765L1370.22 823.615C1366.5 802.189 1357.35 748.193 1353.34 725.338L1440 740.194V722.766L1396.81 715.339L1407.11 651.058C1418.55 653.344 1429.7 655.629 1440 657.915V640.202L1415.4 635.059L1440 603.633V575.635L1396.53 631.059L1340.19 619.346L1364.21 451.074L1440 464.787V435.647L1431.99 434.218L1440 379.937V261.375L1431.13 321.37L1350.48 301.943C1354.49 280.802 1365.35 224.521 1369.36 203.094L1440 216.236V198.808L1394.53 190.238L1430.28 -4.60388L1440 -2.88974V-32.0303L1416.55 -36.3156L1422.84 -80.3121L1440 -84.0261V-92.8825L1423.98 -89.4542L1438 -186.589L1440 -186.304V-403.143L1434.85 -367.146L1380.8 -363.718L1378.22 -410H1369.64L1372.22 -363.147L1326.46 -360.29L1324.46 -410H1307.3L1309.3 -359.147L1245.81 -355.147L1255.53 -409.714H1238.09L1228.65 -356.576L1132.84 -382.002L1137.99 -409.714H1108.81L1099.09 -356.861L1033.31 -345.719L1025.3 -409.714H1007.86L1016.15 -342.863L951.801 -332.006L924.06 -388.287C940.361 -393.144 968.103 -401.144 997.847 -409.714H936.071L916.338 -404L913.478 -409.714H881.446L888.31 -396.001C878.3 -393.144 864.858 -389.43 851.416 -385.716C849.414 -391.43 846.268 -400.001 843.122 -409.714H833.97L843.122 -383.431C827.106 -378.86 812.806 -374.86 807.086 -373.431L765.617 -386.288L768.191 -409.714H759.611L757.323 -389.145L704.127 -405.715L705.557 -410H687.253L680.389 -391.144L634.916 -410H618.9L604.886 -373.717L539.678 -396.287C542.252 -400.858 544.826 -405.429 547.4 -410H527.38C517.656 -393.43 507.074 -377.431 495.921 -363.147L488.199 -410H470.753L473.041 -396.858L429.569 -371.146L406.689 -410H396.679L450.447 -318.864C449.303 -318.007 447.873 -317.15 446.729 -316.293C429.569 -305.151 407.261 -296.866 381.521 -290.581L390.101 -410H381.521L372.655 -288.581C363.217 -286.581 353.494 -284.867 343.484 -283.153L334.046 -409.714H316.6L319.746 -366.861L215.928 -379.431L215.07 -409.714H197.911L198.483 -381.431L174.459 -384.288L148.719 -409.429H136.421L160.445 -386.002L72.9295 -396.573L74.6455 -409.429H66.0655L64.6355 -397.43L30.0298 -401.715L31.1738 -409.429H2.00199L0.857994 -402.286V-185.447L75.5035 -171.733L88.3734 -110.024L0.857994 -91.7398V-82.8833L27.1698 -88.3115L35.4638 -24.6023L0.857994 -31.1732V-2.03265L38.8957 5.10962L10.0099 201.38L0.857994 199.666V217.093L7.43595 218.235L0.857994 262.232V380.794L24.3098 221.378L105.819 236.52L84.3694 451.36L1.14399 436.504V465.644L77.5055 479.357L1.14399 576.778V604.776L76.9335 508.212L56.0556 652.772L0.857994 641.344V659.057C23.1658 663.628 41.7557 667.628 53.4816 669.914L44.6157 731.337L0.857994 723.909V741.336L6.00596 742.193L0.857994 747.907V760.763L16.0159 743.908L42.0417 748.479L30.8878 826.473L0.571996 807.331V817.616L29.4578 835.9L21.1639 894.467L0.857994 893.896V902.466L20.0199 903.038L16.5879 927.607L0.857994 928.179V945.32L14.0139 945.034L2.00199 1029.6H31.1738L43.1857 946.463L76.0755 950.748L66.3515 1029.31H74.9315L81.7954 975.318L136.707 1029.31H149.005L82.9394 964.747L84.6554 951.891L196.481 966.747L197.911 1029.31H215.07L213.641 969.032L313.168 982.174L316.6 1029.31H334.046L332.33 1005.03L383.809 996.173L381.521 1029.31H390.101L390.959 1019.31L396.965 1029.31H406.975L392.103 1004.17L392.675 994.745L463.317 982.746L471.039 1029.31H488.485L464.175 883.325L587.154 892.753C573.712 933.892 553.978 984.46 527.952 1029.31H547.972C558.554 1010.17 567.992 990.459 576.572 971.032L633.772 992.745L619.472 1029.31H635.488L629.768 1027.03L658.367 953.605L710.991 965.89L687.825 1029.31H706.129L749.887 909.037L773.625 905.895L759.897 1029.31H768.477L773.911 979.889L813.092 969.318L834.256 1029.31H843.408C835.4 1006.46 825.39 977.889 821.386 967.033L847.698 959.89L881.732 1029.31H913.764L899.178 999.316L1013.86 963.89L1007.57 1008.74L936.643 1029.31H998.419C1001.57 1028.46 1004.71 1027.6 1008.14 1026.46L1008.43 1029.31H1025.87L1025.02 1021.6C1060.19 1011.31 1095.09 1001.32 1115.96 995.316L1109.67 1029.31H1138.84L1144.85 987.031ZM1129.41 912.466L1039.03 900.181L1048.18 836.472L1140.56 852.185L1129.41 912.466ZM936.358 799.903L942.649 765.049L1038.46 783.047L1033.6 816.473L936.358 799.903ZM1031.31 833.615L1027.3 860.755L963.813 851.613L970.105 823.33L1031.31 833.615ZM710.705 799.332L668.091 798.189L674.669 761.62L710.705 779.048C710.133 782.476 709.847 785.619 709.847 789.047C709.847 792.475 710.133 795.903 710.705 799.332ZM723.861 828.472C726.149 831.329 728.723 833.9 731.297 836.186L698.979 879.04L668.377 827.044L723.861 828.472ZM721.859 752.193L639.778 712.767L729.009 680.198L742.451 733.908C734.157 738.479 727.293 744.765 721.859 752.193ZM153.009 661.057L163.591 637.345L294.578 606.204L275.702 671.628L153.009 661.057ZM271.698 688.483L262.832 733.337L230.8 725.338L233.088 685.341L271.698 688.483ZM88.9454 -263.155C118.117 -260.869 151.865 -259.155 187.329 -258.584L187.043 -250.013L84.6554 -218.301L88.9454 -263.155ZM53.7676 -283.724L63.4916 -338.291L157.585 -326.578C156.727 -316.579 154.153 -290.581 152.723 -277.153C114.971 -278.582 80.6514 -281.153 53.7676 -283.724ZM276.56 -168.591L287.714 -69.1702C261.974 -66.3133 185.041 -57.4568 157.585 -54.0285L169.597 -158.306L276.56 -168.591ZM186.757 -240.871L184.183 -176.876L162.447 -174.876L142.427 -178.59L136.707 -225.443L186.757 -240.871ZM288.858 -60.5994L292.862 -24.6023L152.437 -7.46078L156.727 -45.1721L288.858 -60.5994ZM880.874 -67.456L864.858 -11.1748L799.078 14.2517C789.354 -12.6033 781.919 -38.8869 777.629 -54.5999L880.874 -67.456ZM790.785 -122.023L841.12 -128.023L846.84 -92.3112L795.075 -86.026L790.785 -122.023ZM1041.03 244.233L980.115 229.949L1010.43 135.099L1062.77 144.813C1059.05 162.24 1049.61 204.808 1041.03 244.233ZM1071.35 146.241L1135.7 158.24L1051.61 236.52L1071.35 146.241ZM497.065 165.954L596.592 156.526L607.46 199.665L488.199 203.094L497.065 165.954ZM497.065 91.1028L588.012 122.815L592.302 139.67L504.501 147.955L497.065 91.1028ZM950.085 229.949L933.784 280.802L862.856 252.804L881.732 205.379L950.085 229.949ZM884.878 197.094L901.18 155.955C925.49 169.954 949.227 182.238 962.955 189.095L952.659 221.664L884.878 197.094ZM838.546 267.089L805.084 238.805L845.124 181.953L866.288 197.094L838.546 267.089ZM835.114 275.374L833.398 279.373L749.601 286.516L707.559 230.52L749.315 202.522L835.114 275.374ZM741.021 289.944L670.093 330.798L653.791 266.803L700.123 235.663C708.131 245.948 732.727 278.516 741.021 289.944ZM702.125 223.949C698.407 219.378 691.829 210.807 686.967 204.808L721.859 179.667L742.451 197.094L702.125 223.949ZM694.975 228.806L651.789 257.661L645.784 234.234L679.817 209.665L694.975 228.806ZM648.357 361.367L572.282 338.797L629.482 286.516L648.357 361.367ZM562.558 335.94L464.175 306.8L486.197 211.95L609.462 208.236L626.908 276.802L562.558 335.94ZM455.881 152.526L442.439 38.5355L481.049 32.8217L496.207 148.812L455.881 152.526ZM455.023 169.954L488.199 166.811L472.183 235.091L439.293 224.521L455.023 169.954ZM470.181 243.662L455.881 304.229L419.559 293.372L436.719 232.806L470.181 243.662ZM460.743 323.655L413.839 450.788L378.947 436.218L414.983 309.942L460.743 323.655ZM469.037 326.227L513.938 339.654L494.491 397.364C481.621 393.364 457.883 385.936 448.159 383.079L469.037 326.227ZM508.218 410.792C517.084 413.934 532.242 419.077 550.26 425.362L521.66 490.214L483.051 485.643L508.218 410.792ZM511.078 402.506L530.526 344.225L597.164 363.938L581.148 426.79L511.078 402.506ZM605.458 366.509L653.219 380.794L672.953 459.073L589.156 429.647L605.458 366.509ZM672.667 339.369L709.561 318.227L727.579 382.508L680.389 370.509L672.667 339.369ZM716.997 313.656L748.743 295.372L829.68 288.516L786.208 397.364L737.017 384.793L716.997 313.656ZM824.246 349.082L863.142 361.938L849.128 413.363L803.368 401.649L824.246 349.082ZM827.392 341.083L859.424 260.518L930.924 288.801L905.756 367.081L827.392 341.083ZM934.07 373.366L1006.43 386.222L945.795 487.357L908.33 453.359L934.07 373.366ZM942.935 345.939L977.541 238.234L1039.32 252.804C1033.02 281.088 1027.59 306.8 1024.73 319.084L970.963 351.082L942.935 345.939ZM1046.75 259.089L1072.49 290.515L1035.03 312.799L1046.75 259.089ZM968.389 172.525C939.503 157.955 874.582 123.386 844.266 97.6737C842.836 96.5309 841.406 95.1024 839.976 93.674L909.474 34.2502L987.551 113.101L968.389 172.525ZM863.428 50.8202L840.834 7.39511L867.718 -2.88977L897.176 22.2511L863.428 50.8202ZM856.85 56.5341L829.68 79.6751C819.67 64.2478 810.518 43.3923 802.224 21.9655L832.54 10.2521L856.85 56.5341ZM833.112 110.815C846.554 122.243 866.002 135.099 886.308 147.098L869.72 188.809L789.641 130.814L826.534 104.245C828.822 106.53 830.824 108.816 833.112 110.815ZM838.26 176.81L798.506 233.091L729.295 174.239L782.205 136.242L838.26 176.81ZM732.727 150.526L717.283 99.3877L755.607 81.1035L771.623 122.814L732.727 150.526ZM714.709 90.817L702.411 49.9631L729.581 13.1089L752.461 72.8185L714.709 90.817ZM717.855 161.097L641.208 216.236L613.466 106.816L696.405 90.817L717.855 161.097ZM611.75 98.245L579.146 -30.6018L657.223 -40.0297L694.117 82.5319L611.75 98.245ZM585.724 112.815L495.921 81.3893L489.343 31.6789L562.558 20.8227L585.724 112.815ZM441.295 29.9647L436.147 -13.1747L550.26 -27.1736L560.27 12.2519L441.295 29.9647ZM430.999 -41.458L422.419 -78.5979L544.254 -72.8841L548.83 -55.7426L430.999 -41.458ZM437.291 142.813L355.21 48.8203L351.778 -2.8898L418.987 -11.1749L437.291 142.813ZM348.632 -31.4588L342.626 -68.5987C365.791 -72.027 391.817 -76.3124 404.973 -78.0266L414.125 -39.4582L348.632 -31.4588ZM343.198 -1.74704L346.344 46.5348L310.022 49.9631L311.166 1.96695L343.198 -1.74704ZM349.204 55.1056L435.861 154.526L306.876 166.811L309.736 59.1053C321.462 57.6768 342.34 55.677 349.204 55.1056ZM436.433 171.668L365.219 421.648L330.328 402.221L404.401 174.81L436.433 171.668ZM374.371 453.074L463.317 490.214L453.307 519.925L366.363 480.214L374.371 453.074ZM421.847 454.216L445.013 390.793L491.631 405.363L468.751 473.929L421.847 454.216ZM480.191 494.213L519.372 498.784L510.506 557.066L468.751 528.496L480.191 494.213ZM528.524 496.213L558.268 428.219C581.72 436.504 608.604 445.931 632.056 453.931L606.03 587.063L572.854 599.633L518.228 562.208L528.524 496.213ZM660.083 585.063L674.669 637.345L613.18 663.057L585.152 613.632L660.083 585.063ZM615.754 583.635L640.636 457.073C654.649 461.93 666.947 466.216 675.813 469.358L696.977 552.78L615.754 583.635ZM685.251 389.365L781.347 413.934L756.465 446.788L703.555 461.93L685.251 389.365ZM790.499 416.219L881.16 439.36L779.917 490.785L763.901 451.074L790.499 416.219ZM857.422 415.648L871.15 364.795L903.182 375.366L887.738 423.362L857.422 415.648ZM905.47 462.787L986.693 536.21L980.687 547.638C939.503 539.638 903.754 532.782 884.306 529.068L905.47 462.787ZM952.373 493.642L1015.58 388.222L1059.62 396.221L990.697 528.496L952.373 493.642ZM1068.49 397.65L1082.5 400.221L1055.33 562.208C1033.31 557.922 1011 553.637 989.553 549.637L1068.49 397.65ZM1073.35 506.784L1144.28 523.64L1135.7 577.635C1114.25 573.635 1089.37 568.779 1063.63 563.922L1073.35 506.784ZM1084.22 585.349L1132.55 594.491L1111.1 683.627L1071.35 675.627L1084.22 585.349ZM1140.85 596.205L1186.03 604.776L1169.45 695.34L1119.68 685.341L1140.85 596.205ZM1144.28 579.349L1152.86 525.068L1200.05 528.782L1189.18 587.92C1178.6 585.92 1163.15 582.778 1144.28 579.349ZM1154.29 516.497L1160.01 480.214L1207.77 486.785L1201.48 520.211L1154.29 516.497ZM1161.44 471.644L1170.3 415.934L1219.21 424.79L1209.49 478.215L1161.44 471.644ZM1145.71 515.069L1074.78 498.213L1091.08 401.649L1161.72 414.22L1145.71 515.069ZM996.989 355.653L1083.65 304.229L1147.71 382.794L996.989 355.653ZM1091.08 299.657L1203.77 232.806L1228.93 263.375L1115.96 329.941L1091.08 299.657ZM1079.93 285.944L1050.18 249.661L1145.14 161.097L1192.61 219.092L1079.93 285.944ZM1148.85 97.9593L1081.36 89.1028C1083.36 76.2467 1085.36 64.2477 1086.51 58.2482L1153.14 71.6757L1148.85 97.9593ZM1147.42 106.244L1141.7 141.67L1074.49 129.1C1075.64 121.386 1077.64 109.387 1079.64 97.1023L1147.42 106.244ZM1066.2 127.671L1016.15 118.243L1038.46 48.249L1077.93 56.2484L1066.2 127.671ZM993.557 94.2453L922.916 22.8224L978.399 -24.6023L1024.44 -1.17563L993.557 94.2453ZM903.754 16.2515L873.438 -9.46072L890.312 -68.5988L993.557 -81.1693C994.987 -75.7411 996.989 -70.5987 999.849 -66.0276L903.754 16.2515ZM864 -94.311L850.272 -182.018L908.902 -191.16L922.63 -101.453L864 -94.311ZM816.238 90.5313L779.059 117.386L735.873 5.10959L765.617 -35.1729C775.341 -0.604218 793.644 56.2484 816.238 90.5313ZM699.265 39.6782L674.383 -42.3152L760.469 -52.8858C761.041 -50.886 761.613 -48.6004 762.185 -46.0292L699.265 39.6782ZM685.537 -72.5985L657.795 -69.1702L610.606 -144.878L685.823 -156.592L685.537 -72.5985ZM648.357 -68.0274L576.286 -59.171L604.886 -137.736L648.357 -68.0274ZM562.558 -72.0271L523.948 -221.158L606.316 -192.018L562.558 -72.0271ZM541.966 -82.0263L475.043 -85.1689L457.025 -186.018L513.652 -191.446L541.966 -82.0263ZM466.177 -85.4545L420.417 -87.4543L398.681 -180.018L448.445 -184.875L466.177 -85.4545ZM402.971 -86.5973L341.482 -77.1694L335.476 -114.309L394.677 -122.309L402.971 -86.5973ZM340.052 -30.3161L310.022 -26.6021L306.018 -62.5993C312.882 -63.742 322.892 -65.1705 334.332 -66.8846L340.052 -30.3161ZM306.59 183.952L395.249 175.667L350.062 313.942L303.73 294.801L306.59 183.952ZM347.488 322.227L322.32 399.364L301.156 395.936L303.444 304.229L347.488 322.227ZM319.46 407.649L299.154 469.93L300.87 404.506C306.876 405.363 314.598 406.792 319.46 407.649ZM327.754 410.506L362.931 430.218L325.466 561.637L297.152 547.923L298.296 500.213L327.754 410.506ZM364.361 488.499L450.733 527.925L423.849 608.49L341.482 568.779L364.361 488.499ZM465.891 537.067L563.13 603.633L479.333 635.631L439.293 616.204L465.891 537.067ZM476.759 666.2L553.692 703.339L533.672 740.479L465.319 725.909L476.759 666.2ZM500.783 645.915L576.858 616.775L605.172 666.199L571.996 679.913L500.783 645.915ZM677.243 645.915L688.397 686.198L628.91 707.91L582.292 685.626L677.243 645.915ZM668.377 581.921L700.981 569.35L726.721 671.628L696.405 682.77L668.377 581.921ZM705.557 470.215L756.465 455.645L805.37 576.207L737.589 597.348L705.557 470.215ZM783.349 498.784L879.444 449.931L828.25 609.347L783.349 498.784ZM878.872 545.923L960.953 561.636L945.223 650.201L851.416 631.345L878.872 545.923ZM959.237 670.771L1051.9 689.626L1044.75 739.908L955.233 693.626L959.237 670.771ZM962.097 653.629L977.827 564.779L1067.06 581.921L1054.19 672.199L962.097 653.629ZM1068.77 692.769L1166.3 712.482L1156.58 764.763L1061.05 745.908L1068.77 692.769ZM1177.45 811.045L1219.21 816.473L1206.34 882.754L1165.16 877.611L1177.45 811.045ZM1178.88 802.474L1198.05 698.197L1240.66 705.625L1220.64 807.902L1178.88 802.474ZM1201.19 681.341L1214.35 610.49C1227.79 613.347 1250.1 617.918 1276.41 623.346L1260.97 691.626L1201.19 681.341ZM1217.21 593.634L1233.22 506.212L1336.18 520.497L1322.45 615.632L1217.21 593.634ZM1230.08 397.364L1160.58 384.793L1121.11 336.797L1234.08 270.231L1250.96 290.801L1230.08 397.364ZM1266.97 298.8L1338.47 316.228C1334.47 336.512 1324.17 388.222 1319.31 413.363L1247.24 400.507L1266.97 298.8ZM1255.25 268.517L1170.3 164.811L1271.55 183.952L1255.25 268.517ZM1158.58 145.099L1175.45 39.1069L1296.43 56.5341L1274.98 167.097L1158.58 145.099ZM1223.5 28.5363L1233.51 -42.3151L1313.02 -27.4592L1299.86 39.6783L1223.5 28.5363ZM1229.51 -72.3127L1196.9 -78.3122L1207.2 -137.165L1240.09 -133.736L1229.51 -72.3127ZM1224.93 -44.0294C1222.07 -24.3167 1217.21 11.1091 1214.92 27.1078L1178.31 21.6797L1190.04 -50.886L1224.93 -44.0294ZM1179.74 -81.7406L1117.39 -93.4539C1117.39 -94.5967 1117.39 -96.0252 1117.39 -97.1679C1117.39 -106.024 1115.39 -114.595 1112.25 -122.309L1171.16 -157.735L1187.18 -123.166L1179.74 -81.7406ZM1173.16 -53.7428L1154.57 62.8193L1041.32 39.964L1065.63 -35.4586C1084.22 -38.6012 1100.23 -50.0288 1109.39 -66.0275L1173.16 -53.7428ZM1054.47 -63.1707C1035.6 -63.1707 1020.15 -78.5981 1020.15 -97.4537C1020.15 -116.309 1035.6 -131.737 1054.47 -131.737C1073.35 -131.737 1088.79 -116.309 1088.79 -97.4537C1088.79 -78.5981 1073.35 -63.1707 1054.47 -63.1707ZM1035.6 -37.1727L1026.73 -9.46066L985.263 -30.6018L1010.43 -52.0287C1017.29 -45.4578 1025.87 -40.3153 1035.6 -37.1727ZM992.699 -110.024L931.21 -102.596L917.196 -192.589L982.689 -202.874L1011.58 -144.021C1002.42 -134.879 995.559 -123.166 992.699 -110.024ZM835.972 -197.446L831.682 -231.729L956.949 -255.441L974.967 -218.873L835.972 -197.446ZM833.112 -179.447L839.69 -136.593L789.641 -130.594L784.779 -172.019L833.112 -179.447ZM786.495 -84.8831L694.403 -73.7412V-158.02L776.485 -170.876L786.495 -84.8831ZM697.263 -175.733L726.721 -281.439L763.043 -267.726L742.165 -182.875L697.263 -175.733ZM688.111 -174.305L614.324 -162.877L666.089 -304.58L718.999 -284.582L688.111 -174.305ZM609.176 -200.017L566.848 -214.873L581.72 -268.297L627.194 -249.441L609.176 -200.017ZM558.84 -217.73L521.374 -230.871L503.07 -300.866L573.998 -271.44L558.84 -217.73ZM509.362 -208.016L391.245 -196.874L385.811 -235.157L496.493 -257.155L509.362 -208.016ZM392.675 -130.594L334.046 -122.594L326.038 -173.162L381.521 -178.59L392.675 -130.594ZM326.896 -112.881L332.902 -75.7411L305.16 -71.4558L300.87 -109.453L326.896 -112.881ZM299.726 -118.023L294.006 -170.305L317.458 -172.59L325.466 -121.737L299.726 -118.023ZM294.006 4.25244L292.862 51.6772C279.134 52.82 251.392 55.3912 240.238 56.2483L241.954 10.252L294.006 4.25244ZM222.506 286.23L221.076 325.084C211.353 324.798 188.187 323.941 178.463 323.656L180.179 283.373L222.506 286.23ZM183.325 265.946L225.938 197.094L223.078 268.803L183.325 265.946ZM220.504 333.655L218.788 379.937C204.775 377.08 189.903 374.223 176.175 371.652L177.891 332.226L220.504 333.655ZM218.216 388.507L211.067 446.217L165.879 434.504L175.031 379.937L218.216 388.507ZM215.643 479.072L240.81 485.357L238.236 519.64L212.211 507.069L215.643 479.072ZM216.786 470.215L226.51 389.936L247.674 393.936L241.668 476.215L216.786 470.215ZM256.254 395.936L283.71 401.364L280.278 539.638L246.816 523.64L256.254 395.936ZM227.368 381.651L229.084 334.226C240.238 334.797 270.268 336.512 285.14 337.369L283.71 392.793C272.27 390.507 251.106 386.222 227.368 381.651ZM229.656 325.37L231.086 286.801L286.57 290.801L285.712 328.798L229.656 325.37ZM231.658 269.374L235.09 184.81L289.43 180.81L287.142 273.088L231.658 269.374ZM235.376 176.239L236.806 142.241L290.288 143.67L289.43 172.239L235.376 176.239ZM237.378 125.1L239.666 65.1048L292.29 60.5338L290.574 126.529L237.378 125.1ZM154.725 21.1084L233.088 11.6806L231.372 56.8199L151.293 55.9628L154.725 21.1084ZM231.086 65.3905L228.798 124.814L144.715 122.529L150.435 64.5334L231.086 65.3905ZM228.226 142.242L226.796 179.667L199.341 224.235L141.855 151.669L142.999 139.956L228.226 142.242ZM194.193 231.949L173.315 265.374L130.415 262.232L140.425 163.954L194.193 231.949ZM171.599 282.516L167.595 369.652C148.719 365.938 131.845 362.51 120.977 360.51L128.985 279.373L171.599 282.516ZM116.115 118.529L81.5094 113.672L98.6693 14.8232L126.125 19.9656L116.115 118.529ZM119.833 369.081L166.451 378.223L149.863 476.786L110.681 457.931L119.833 369.081ZM164.449 443.074L209.923 454.788L203.917 502.784L158.157 480.786L164.449 443.074ZM208.207 537.067L301.442 581.921L297.152 596.777L167.595 627.631L208.207 537.067ZM309.45 585.635L355.21 607.633L335.19 676.484L284.854 672.199L309.45 585.635ZM370.939 615.347L410.407 634.202L381.521 754.764L331.758 749.622L370.939 615.347ZM439.579 769.62L435.289 791.618L320.318 788.476L329.184 758.192L439.579 769.62ZM390.101 755.621L418.415 638.202L460.743 658.772L441.009 761.335L390.101 755.621ZM463.889 734.48L586.296 760.764L582.006 795.618L453.021 791.904L463.889 734.48ZM542.538 742.479L561.7 707.053L604.314 727.623L589.156 752.478L542.538 742.479ZM595.162 758.764L611.75 731.337L666.375 757.621L659.225 797.903L590.3 795.903L595.162 758.764ZM772.767 754.764C791.642 754.764 807.086 770.191 807.086 789.047C807.086 807.902 791.642 823.33 772.767 823.33C753.891 823.33 738.447 807.902 738.447 789.047C738.733 770.191 753.891 754.764 772.767 754.764ZM789.927 728.48C784.493 727.052 778.773 726.195 772.767 726.195C771.909 726.195 771.051 726.195 770.193 726.195L739.877 605.633L808.802 584.206L824.246 622.489L789.927 728.48ZM846.268 647.915L942.363 667.342L940.933 675.913L824.246 752.478C821.672 749.05 819.098 745.907 815.952 743.051L846.268 647.915ZM938.645 687.341L919.198 796.76L835.4 782.476C834.542 774.191 832.254 766.477 828.536 759.62L938.645 687.341ZM961.811 821.616L955.233 850.185L878.3 839.043L893.172 809.902L961.811 821.616ZM944.079 756.192L953.517 702.482L1043.32 748.764L1039.6 774.191L944.079 756.192ZM1143.71 835.043L1050.76 819.33L1059.91 754.478L1154.86 773.048L1143.71 835.043ZM1187.75 977.603L1148.28 969.889L1163.73 885.896L1204.62 891.039L1187.75 977.603ZM1244.38 988.745L1204.62 981.031L1229.79 851.899L1266.97 860.184L1244.38 988.745ZM1268.4 851.327L1231.51 843.042L1257.82 708.196L1292.71 714.196L1268.4 851.327ZM1376.51 928.178L1320.17 929.607L1318.74 892.467L1364.5 842.185C1367.07 861.898 1373.65 908.466 1376.51 928.178ZM1362.78 831.329L1318.16 880.468L1311.59 717.91L1344.19 723.338L1362.78 831.329ZM1389.95 646.772L1379.65 711.624L1269.55 692.769L1284.99 624.774C1317.31 631.917 1354.77 639.63 1389.95 646.772ZM1337.9 511.926L1235.23 497.642L1247.81 429.933L1347.34 447.646L1337.9 511.926ZM1371.65 422.79L1327.89 415.077L1336.75 369.652L1379.65 378.222L1371.65 422.79ZM1414.83 430.504L1380.23 424.219L1388.52 379.937L1421.41 386.508L1414.83 430.504ZM1428.27 337.654L1422.27 377.651L1338.18 360.795L1346.76 317.942L1428.27 337.654ZM1341.9 299.086L1270.4 281.659L1288.99 187.095L1360.78 200.523L1341.9 299.086ZM1385.66 187.666L1292.14 169.954L1307.87 89.96L1400.53 108.53L1385.66 187.666ZM1433.42 -359.147L1423.41 -290.01L1384.8 -290.581L1381.37 -356.004L1433.42 -359.147ZM1384.23 -273.44L1420.84 -272.868L1401.1 -136.308H1371.65L1384.23 -273.44ZM1370.79 -127.451H1399.96L1387.66 -42.6009L1363.35 -47.1719L1370.79 -127.451ZM1355.06 -48.8861L1338.76 -52.0287L1329.6 -274.297L1375.65 -273.44L1355.06 -48.8861ZM1372.5 -355.433L1375.94 -290.581L1329.03 -291.438L1326.46 -352.576L1372.5 -355.433ZM1329.89 -24.3166L1421.41 -7.17508L1401.68 100.245L1309.3 81.6749L1329.89 -24.3166ZM1321.31 -55.1713L1238.09 -70.8843C1241.23 -89.74 1246.95 -121.737 1248.95 -132.879L1318.74 -125.451L1321.31 -55.1713ZM1318.16 -134.308L1208.63 -146.021L1216.92 -192.589L1315.88 -193.446L1318.16 -134.308ZM1243.81 -347.719L1309.01 -351.719L1311.59 -287.438L1233.22 -288.01L1243.81 -347.719ZM1232.08 -279.439L1312.44 -278.868L1315.59 -202.302L1218.64 -201.445L1232.08 -279.439ZM1130.84 -374.86L1226.65 -349.433L1216.35 -290.581L1120.54 -318.864L1130.84 -374.86ZM1214.92 -282.01L1192.33 -152.878L1119.4 -310.294L1214.92 -282.01ZM1113.68 -281.439L1167.44 -165.734L1108.24 -130.022C1103.38 -137.736 1097.09 -144.593 1089.37 -149.735L1113.68 -281.439ZM1096.8 -349.148L1061.91 -159.734C1059.91 -160.02 1057.91 -160.02 1055.62 -160.02L1033.6 -338.291L1096.8 -349.148ZM1016.44 -335.435L1038.46 -158.02C1037.89 -158.02 1037.6 -157.735 1037.03 -157.735L954.661 -325.15L1016.44 -335.435ZM895.174 -381.431L953.231 -263.44L896.032 -252.584L856.278 -370.575L895.174 -381.431ZM847.984 -368.289C856.278 -344.005 880.874 -270.297 887.452 -250.87L830.824 -240.299L815.666 -359.433L847.984 -368.289ZM819.098 -194.874L751.603 -184.304L771.337 -264.583L812.234 -249.156L819.098 -194.874ZM810.804 -258.869L729.581 -289.724L748.743 -331.721L804.226 -311.436L810.804 -258.869ZM761.041 -370.86L798.22 -359.433L803.082 -321.15L751.889 -339.72L761.041 -370.86ZM697.263 -390.573L753.033 -373.146L742.737 -338.291L721.859 -292.581L668.949 -312.579L697.263 -390.573ZM624.906 -405.429L676.385 -384.002L665.231 -353.719L611.75 -372.289L624.906 -405.429ZM606.316 -355.719L659.225 -337.434L630.054 -257.726L584.008 -276.868L606.316 -355.719ZM529.382 -382.288L598.308 -358.576L576.286 -280.01L500.497 -311.436L493.919 -336.292C506.788 -350.29 518.514 -365.718 529.382 -382.288ZM432.429 -364.861L473.041 -388.859L479.905 -347.148C472.183 -338.863 464.175 -331.721 455.881 -325.15L432.429 -364.861ZM454.737 -302.866C463.317 -308.58 471.897 -315.15 479.905 -322.293L494.777 -265.154L384.953 -243.442L380.663 -274.011C409.549 -280.868 435.003 -290.295 454.737 -302.866ZM371.797 -272.297L382.379 -196.017L267.408 -185.161L261.688 -259.726C300.298 -261.155 338.05 -265.155 371.797 -272.297ZM319.746 -350.576L324.894 -282.01C290.574 -277.725 253.68 -276.011 217.358 -276.011L215.356 -363.432L319.746 -350.576ZM253.394 -259.155L259.114 -184.018L192.763 -177.733L196.195 -258.298C214.785 -258.298 234.232 -258.584 253.394 -259.155ZM171.027 -368.575L197.625 -365.432L198.483 -330.006L167.023 -334.006C167.881 -341.72 169.883 -358.29 171.027 -368.575ZM198.769 -321.436L199.913 -276.011C186.757 -276.011 173.887 -276.296 161.303 -276.868L166.165 -325.435L198.769 -321.436ZM26.0258 -386.288L162.447 -369.717L158.443 -335.149L21.1639 -352.29L26.0258 -386.288ZM20.0199 -343.72L54.9116 -339.434L45.1877 -284.581C31.4598 -286.01 20.3059 -287.153 12.0119 -288.01L20.0199 -343.72ZM73.5015 -191.16L0 -204.588L9.43793 -270.868C24.3098 -269.154 49.1917 -266.297 80.3654 -264.012L73.5015 -191.16ZM83.7974 -209.159L127.841 -222.872L133.275 -180.304L82.0814 -189.732L83.7974 -209.159ZM83.2254 -171.733L152.151 -159.163L134.705 -7.46078L116.687 -10.8891L83.2254 -171.733ZM34.3198 -92.0254L88.6594 -103.453L107.535 -12.6032L43.1857 -24.6022L34.3198 -92.0254ZM25.4538 202.808L54.3396 6.53802L90.0894 13.1089L56.0556 208.236L25.4538 202.808ZM64.6356 209.95L80.0794 121.958L115.543 126.814L106.391 217.664L64.6356 209.95ZM106.963 488.214L192.763 529.353L134.705 659.343L83.2254 655.058L106.963 488.214ZM80.6514 672.199L216.214 683.627L213.926 723.624L71.7855 734.766L80.6514 672.199ZM213.355 732.48L210.209 785.047L174.745 783.904V735.337L213.355 732.48ZM70.3555 743.908L166.165 736.48V784.19L64.9215 781.333L70.3555 743.908ZM121.549 937.892L44.0437 927.607L55.7696 846.185L129.271 856.184L121.549 937.892ZM56.9136 837.615L60.9176 809.902L133.275 811.902L130.129 847.614L56.9136 837.615ZM156.441 942.463L130.129 939.035L137.565 857.327L164.735 861.041L156.441 942.463ZM165.593 852.47L138.423 848.756L141.855 811.902L169.597 812.759L165.593 852.47ZM204.203 949.034L173.601 945.034L181.895 863.041L209.923 864.755L204.203 949.034ZM182.753 854.184L187.043 813.331L299.726 816.473L302.872 861.041L182.753 854.184ZM212.783 950.177L218.788 865.041L303.73 869.897L310.594 963.318L212.783 950.177ZM302.586 787.904L227.654 785.904L230.514 734.194L312.024 755.05L302.586 787.904ZM271.412 735.622L280.564 689.34L330.328 693.626L314.884 746.764L271.412 735.622ZM316.886 817.045L434.717 820.473L439.865 850.756L320.318 861.041L316.886 817.045ZM320.89 869.326L441.295 859.041L448.731 903.038L324.322 916.465L320.89 869.326ZM330.042 994.745L325.466 933.892L451.305 920.179L459.885 972.461L330.042 994.745ZM461.029 872.755L452.449 820.759L604.886 825.044C601.454 838.186 596.02 858.47 588.298 882.468L461.029 872.755ZM635.202 983.031L578.288 961.319C581.72 952.748 585.152 944.177 588.298 935.892L648.071 949.891L635.202 983.031ZM594.304 919.608C608.89 878.754 618.042 843.9 622.332 825.615L658.081 826.758L692.973 886.468L656.651 934.178L594.304 919.608ZM715.281 947.891L666.089 936.464L699.837 892.181L731.011 905.037L715.281 947.891ZM734.157 896.753L705.271 884.754L738.161 841.614C742.451 844.471 746.741 846.471 751.603 848.185L734.157 896.753ZM751.889 898.181L768.763 851.613C770.193 851.613 771.337 851.613 772.767 851.613C779.631 851.613 786.495 850.47 792.786 848.471L813.092 889.896L751.889 898.181ZM773.911 969.033L781.347 903.038L817.382 898.181L842.836 950.177L773.911 969.033ZM843.98 887.611L817.382 833.329C826.248 824.473 832.54 812.759 834.828 799.903L884.02 808.188L843.98 887.611ZM894.316 989.888L879.158 959.319L929.494 945.034L937.787 976.46L894.316 989.888ZM1014.15 952.748L946.081 973.889L938.073 942.463L1019.01 919.322L1014.15 952.748ZM1021.58 900.752L871.436 943.606L848.842 897.324L874.296 847.328L1026.16 869.326L1021.58 900.752ZM1024.44 1001.89L1036.46 917.322L1078.78 923.036L1068.77 989.031L1024.44 1001.89ZM1117.97 974.746L1078.21 986.174L1087.65 924.179L1126.26 929.321L1117.97 974.746Z" fill="#C2D1D9"/>
</svg>
